<svg width="36" height="33" viewBox="0 0 36 33" fill="none" xmlns="http://www.w3.org/2000/svg">
<path d="M27.5941 3.5943C23.2576 3.5943 19.7421 8.20899 19.7421 13.9015C19.7421 19.594 23.2576 24.2087 27.5941 24.2087C31.9306 24.2087 35.4461 19.594 35.4461 13.9015C35.4461 8.20899 31.9306 3.5943 27.5941 3.5943V3.5943ZM27.5941 19.6816C25.5164 19.6816 23.832 17.0938 23.832 13.9015C23.832 10.7092 25.5164 8.1214 27.5941 8.1214C29.6719 8.1214 31.3563 10.7093 31.3563 13.9015C31.3563 17.0937 29.6719 19.6816 27.5941 19.6816Z" fill="#FF9E22"/>
<path d="M3.69696 27.1721V5.72228C3.69696 5.19931 4.16661 4.77533 4.74589 4.77533H23.2827C23.862 4.77533 24.3317 5.19931 24.3317 5.72228V27.1721L14.0143 30.866L3.69696 27.1721Z" fill="#FFE377"/>
<path d="M23.2826 4.77533C23.8619 4.77533 24.3316 5.19931 24.3316 5.72228V27.1721L14.0142 30.866V4.77533H23.2826Z" fill="#FFCC00"/>
<path d="M9.03361 26.1143C8.45432 26.1143 7.98468 25.6903 7.98468 25.1674V21.2999C7.98468 20.7769 8.45432 20.3529 9.03361 20.3529C9.6129 20.3529 10.0825 20.7769 10.0825 21.2999V25.1674C10.0825 25.6903 9.6129 26.1143 9.03361 26.1143Z" fill="#FFCC00"/>
<path d="M14.0142 26.1144C13.4349 26.1144 12.9653 25.6904 12.9653 25.1674V17.7842C12.9653 17.2612 13.4349 16.8372 14.0142 16.8372C14.5935 16.8372 15.0631 17.2612 15.0631 17.7842V25.1674C15.0631 25.6904 14.5935 26.1144 14.0142 26.1144Z" fill="#FFCC00"/>
<path d="M18.9949 26.1143C18.4156 26.1143 17.946 25.6904 17.946 25.1674V14.0111C17.946 13.4881 18.4156 13.0641 18.9949 13.0641C19.5742 13.0641 20.0439 13.4881 20.0439 14.0111V25.1674C20.0439 25.6904 19.5742 26.1143 18.9949 26.1143Z" fill="#FF9E22"/>
<path d="M3.30354 26.7455H24.725C25.963 26.8083 26.949 27.7372 26.949 28.8704V29.9271C26.949 31.1008 25.8914 32.0556 24.5914 32.0556H3.43718C2.13719 32.0556 1.07959 31.1008 1.07959 29.9271V28.8704C1.07959 27.7372 2.06555 26.8083 3.30354 26.7455V26.7455Z" fill="#FFCC00"/>
<path d="M15.0632 17.7842V25.1674C15.0632 25.6904 14.5935 26.1144 14.0142 26.1144V16.8372C14.5936 16.8372 15.0632 17.2611 15.0632 17.7842Z" fill="#FF9E22"/>
<path d="M24.725 26.7455C25.963 26.8083 26.949 27.7372 26.949 28.8704V29.9271C26.949 31.1008 25.8913 32.0556 24.5914 32.0556H14.0142V26.7456H24.725V26.7455Z" fill="#FF9E22"/>
<path d="M22.4614 0H4.974C2.2313 0 0 2.01437 0 4.49035V17.0978C0 19.0455 1.75521 20.63 3.91258 20.63C6.06995 20.63 7.82516 19.0454 7.82516 17.0978V11.3435C7.82516 10.946 8.18342 10.6225 8.62373 10.6225C9.06404 10.6225 9.42231 10.946 9.42231 11.3435V13.1415C9.42231 14.9666 11.067 16.4513 13.0886 16.4513C15.1101 16.4513 16.7549 14.9666 16.7549 13.1415V11.8717C16.7549 11.1829 17.3756 10.6225 18.1386 10.6225C19.7383 10.6225 21.0399 9.44763 21.0399 8.00338V7.69898C21.0399 7.13118 21.5515 6.66925 22.1805 6.66925H23.0908C24.954 6.66925 26.4698 5.30082 26.4698 3.61871C26.4698 1.62332 24.6716 0 22.4614 0V0Z" fill="#EFEFEF"/>
<path d="M22.4614 0H14.0143V16.3443C15.5892 15.9731 16.7549 14.678 16.7549 13.1415V11.8716C16.7549 11.1829 17.3756 10.6225 18.1385 10.6225C19.7383 10.6225 21.0398 9.44763 21.0398 8.00338V7.69898C21.0398 7.13118 21.5515 6.66925 22.1804 6.66925H23.0907C24.954 6.66925 26.4698 5.30082 26.4698 3.61871C26.4698 1.62331 24.6717 0 22.4614 0V0Z" fill="#E5E5E5"/>
</svg>
