<svg width="59" height="91" viewBox="0 0 59 91" fill="none" xmlns="http://www.w3.org/2000/svg">
<rect width="59" height="91" fill="url(#paint0_diamond)"/>
<path d="M48.2041 50.9994C48.213 50.9899 48.213 50.9899 48.2041 50.9804C48.1353 50.4383 48.0284 49.9024 47.8842 49.3773L47.8754 49.3678C45.3085 51.3927 42.2672 52.6205 39.0876 52.9155H38.8566C35.9777 52.9155 31.1795 53.959 31.1795 46.6549C31.1795 42.4811 35.9777 42.4811 38.8566 42.4811H39.0432C39.7274 42.4811 43.4237 42.3958 44.801 41.4187C46.9246 39.901 47.671 36.4197 47.671 32.0468C47.671 26.4217 40.9713 26.3553 40.687 26.3553H34.2361C29.7134 26.3553 29.7134 23.4052 29.7134 22.4187C29.7134 21.5839 30.8863 20.9009 32.7967 20.1516L32.7611 20.0472C31.6962 19.8814 30.6207 19.8053 29.5446 19.8196C18.3577 19.8196 8.37042 26.213 8.37042 39.4741C8.37042 42.7467 9.67659 47.613 10.8228 50.8097L10.7962 50.9804C10.7873 50.9899 10.7873 50.9899 10.7962 50.9994C10.7459 51.4081 10.731 51.8209 10.7517 52.2325C10.7413 53.8345 11.5906 55.3016 12.9376 56.0079C14.8835 57.0703 16.2963 57.8576 17.2204 59.5556C17.9264 61.0297 18.335 62.6454 18.4199 64.2985C18.4466 64.602 18.4732 64.9246 18.491 65.2566C18.5413 66.2906 19.3253 67.1111 20.2948 67.1442H38.7055C38.8494 67.1452 38.9928 67.1261 39.132 67.0873C39.9068 66.8482 40.4578 66.1158 40.5093 65.2566C40.9091 58.8726 42.6862 57.8576 46.0627 56.0079C48.062 54.9075 48.4263 52.906 48.2041 50.9994Z" fill="#FFD79D"/>
<path d="M20.2947 52.8301C17.5402 52.8301 14.7769 51.8247 15.6921 47.8216C16.6073 43.8186 17.5402 42.8226 20.2947 42.8226C23.0493 42.8226 27.6608 42.8226 27.6608 46.8256C27.6608 53.8262 23.0581 52.8301 20.2947 52.8301Z" fill="#FFD79D"/>
<path d="M29.5001 59.5461C29.5001 60.4947 26.8345 61.2061 26.8345 59.3089C26.8345 58.3698 26.8345 54.8127 28.6116 54.8127C28.8488 54.8072 29.0778 54.9053 29.2455 55.0844C29.4133 55.2635 29.5053 55.508 29.5001 55.7612C29.495 55.508 29.5869 55.2635 29.7547 55.0844C29.9225 54.9053 30.1515 54.8072 30.3887 54.8127C32.1658 54.8127 32.1658 58.3698 32.1658 59.3089C32.1658 61.2061 29.5001 60.4947 29.5001 59.5461Z" fill="#37474F"/>
<path d="M29.3998 59.8591C29.0885 60.2431 28.6426 60.473 28.1674 60.4947C28.6645 60.596 29.1651 60.3378 29.3998 59.8591Z" fill="#DFC49C"/>
<path d="M48.2042 50.9994C48.2131 50.9899 48.2131 50.9899 48.2042 50.9804C48.1353 50.4383 48.0284 49.9024 47.8843 49.3773L47.8754 49.3679C47.1256 49.9333 46.34 50.4427 45.5243 50.8922C45.5243 50.9216 45.535 50.9501 45.5385 50.9804C45.5474 50.9899 45.5474 50.9899 45.5385 50.9994C45.7607 52.9061 45.3964 54.9076 43.3971 56.0079C40.0206 57.8577 38.2435 58.8726 37.8437 65.2566C37.7922 66.1158 37.2412 66.8482 36.4664 67.0873C36.3272 67.1261 36.1838 67.1452 36.0399 67.1443L38.7056 67.1443C38.8495 67.1452 38.9928 67.1261 39.1321 67.0873C39.9069 66.8482 40.4578 66.1158 40.5093 65.2566C40.9092 58.8726 42.6863 57.8577 46.0628 56.0079C48.062 54.9076 48.4263 52.9061 48.2042 50.9994Z" fill="#DFC49C"/>
<path d="M45.0054 32.0468C45.0054 36.4197 44.259 39.901 42.1354 41.4187C40.7581 42.3958 37.0618 42.4812 36.3776 42.4812H36.191C33.3121 42.4812 28.5139 42.4812 28.5139 46.6549C28.5139 53.5672 32.8083 53.0047 35.7112 52.9241C33.3912 52.7211 31.1796 51.6112 31.1796 46.6549C31.1796 42.4812 35.9777 42.4812 38.8566 42.4812H39.0432C39.7274 42.4812 43.4238 42.3958 44.801 41.4187C46.9247 39.901 47.6711 36.4197 47.6711 32.0468C47.6711 26.4217 40.9714 26.3553 40.6871 26.3553H38.0214C38.3057 26.3553 45.0054 26.4217 45.0054 32.0468Z" fill="#DFC49C"/>
<path d="M20.2948 52.8302C17.5403 52.8302 14.7769 51.8247 15.6921 47.8216C16.522 44.236 17.3564 43.0626 19.5129 42.8596C18.8456 42.8245 18.1987 42.8226 17.6309 42.8226C14.8764 42.8226 13.9523 43.8281 13.0282 47.8216C12.1041 51.8152 14.8764 52.8302 17.6309 52.8302C18.5195 52.8302 19.6017 52.9307 20.6582 52.8368C20.5347 52.8339 20.4112 52.8302 20.2948 52.8302Z" fill="#DFC49C"/>
<path d="M30.0955 20.0472L30.1311 20.1516C28.2207 20.9009 27.0478 21.5839 27.0478 22.4187C27.0478 23.4052 27.0478 26.3553 31.5705 26.3553H34.2362C29.7134 26.3553 29.7134 23.4052 29.7134 22.4187C29.7134 21.5839 30.8863 20.9009 32.7967 20.1516L32.7612 20.0472C31.6962 19.8814 30.6207 19.8053 29.5446 19.8196C29.0826 19.8196 28.6232 19.8347 28.1656 19.8566C28.8117 19.8821 29.456 19.9458 30.0955 20.0472Z" fill="#DFC49C"/>
<path d="M27.6609 46.8256C27.6609 53.8262 23.0582 52.8301 20.2948 52.8301C17.5314 52.8301 14.7769 51.8247 15.6921 47.8216C16.6073 43.8186 17.5403 42.8226 20.2948 42.8226C23.0493 42.8226 27.6609 42.8226 27.6609 46.8256Z" fill="#37474F"/>
<path d="M44.2234 70.8342C44.2234 73.0444 37.9769 72.8357 35.9421 72.8357H13.3996C8.55265 72.7237 4.50071 68.8677 3.84172 63.7402C3.18274 58.6126 6.11215 53.7341 10.7517 52.2325C10.7412 53.8345 11.5906 55.3016 12.9375 56.0079C14.8835 57.0703 16.2962 57.8576 17.2203 59.5556H13.0264C11.7995 59.5556 10.805 60.6173 10.805 61.927C10.805 63.2368 11.7995 64.2985 13.0264 64.2985H18.4199C18.4465 64.602 18.4732 64.9246 18.491 65.2566C18.5413 66.2906 19.3253 67.1111 20.2947 67.1442H38.7055C38.8494 67.1452 38.9927 67.1261 39.132 67.0873C40.4204 67.8652 44.2234 70.2081 44.2234 70.8342Z" fill="#60A917"/>
<path d="M44.2234 70.8342C44.2234 73.0444 37.9769 72.8357 35.9421 72.8357H13.3996C8.55265 72.7237 4.50071 68.8677 3.84172 63.7402C3.18274 58.6126 6.11215 53.7341 10.7517 52.2325C10.7412 53.8345 11.5906 55.3016 12.9375 56.0079C14.8835 57.0703 16.2962 57.8576 17.2203 59.5556H13.0264C11.7995 59.5556 10.805 60.6173 10.805 61.927C10.805 63.2368 11.7995 64.2985 13.0264 64.2985H18.4199C18.4465 64.602 18.4732 64.9246 18.491 65.2566C18.5413 66.2906 19.3253 67.1111 20.2947 67.1442H38.7055C38.8494 67.1452 38.9927 67.1261 39.132 67.0873C40.4204 67.8652 44.2234 70.2081 44.2234 70.8342Z" fill="#60A917"/>
<path d="M10.8406 61.927C10.8359 61.3031 11.0635 60.7027 11.4734 60.258C11.8834 59.8132 12.442 59.5606 13.0264 59.5555H10.3608C9.13395 59.5555 8.1394 60.6173 8.1394 61.927C8.1394 63.2367 9.13395 64.2984 10.3608 64.2984H13.0264C12.442 64.2934 11.8834 64.0408 11.4734 63.596C11.0635 63.1513 10.8359 62.5509 10.8406 61.927Z" fill="#549414"/>
<path d="M15.8254 65.2565C15.8757 66.2906 16.6597 67.1111 17.6291 67.1442H20.2948C19.3253 67.1111 18.5413 66.2906 18.491 65.2565C18.4732 64.9245 18.4466 64.602 18.4199 64.2985H15.7543C15.7809 64.602 15.8076 64.9245 15.8254 65.2565Z" fill="#549414"/>
<path d="M10.2719 56.0079C12.2179 57.0703 13.6307 57.8576 14.5547 59.5556H17.2204C16.2963 57.8576 14.8835 57.0703 12.9376 56.0079C11.5906 55.3016 10.7413 53.8345 10.7517 52.2325C9.87344 52.5078 9.03697 52.9171 8.26825 53.4477C8.55736 54.5706 9.28828 55.5045 10.2719 56.0079Z" fill="#549414"/>
<path d="M39.132 67.0873C38.9928 67.126 38.8494 67.1452 38.7055 67.1442H36.5605C37.9244 67.9704 41.5577 70.2214 41.5577 70.8342C41.5577 72.5321 37.8774 72.8015 35.249 72.8357H35.9456C37.9804 72.8357 44.2269 73.0444 44.2269 70.8342C44.2234 70.2081 40.4204 67.8651 39.132 67.0873Z" fill="#549414"/>
<path d="M55.2681 32.2554C55.2681 39.1895 53.2066 44.4731 49.5636 47.9354C49.0282 48.4484 48.4644 48.9267 47.8753 49.3677C45.3085 51.3926 42.2672 52.6204 39.0876 52.9154H38.8566C35.9777 52.9154 31.1795 53.9589 31.1795 46.6548C31.1795 42.4811 35.9777 42.4811 38.8566 42.4811H39.0432C39.7273 42.4811 43.4237 42.3957 44.801 41.4186C46.9246 39.9009 47.671 36.4196 47.671 32.0467C47.671 26.4216 40.9713 26.3552 40.687 26.3552H34.2361C29.7134 26.3552 29.7134 23.4051 29.7134 22.4186C29.7134 21.5838 30.8863 20.9009 32.7966 20.1515C33.1521 20.0092 33.5341 19.8669 33.9429 19.7151C36.6618 18.7286 37.4971 18.7666 40.5715 18.7666C46.3915 18.7666 55.2681 22.153 55.2681 32.2554Z" fill="#60A917"/>
<path d="M40.5715 18.7666C39.7505 18.7666 39.0912 18.7666 38.5109 18.7789C44.3203 19.0056 52.6025 22.4974 52.6025 32.2554C52.6025 39.1895 50.541 44.4731 46.898 47.9354C46.3625 48.4485 45.7988 48.9268 45.2097 49.3678C42.6429 51.3927 39.6016 52.6205 36.422 52.9155H36.1909C36.0363 52.9155 35.8737 52.9155 35.7094 52.924C36.8085 53.0189 37.9307 52.9155 38.8566 52.9155H39.0876C42.2672 52.6205 45.3085 51.3927 47.8754 49.3678C48.4644 48.9268 49.0282 48.4485 49.5636 47.9354C53.2067 44.4731 55.2681 39.1895 55.2681 32.2554C55.2681 22.153 46.3915 18.7666 40.5715 18.7666Z" fill="#549414"/>
<path d="M20.2974 53.7739C20.5818 53.7739 20.8865 53.7853 21.2037 53.7967C21.5725 53.81 21.959 53.8242 22.3544 53.8242C23.988 53.9751 25.6108 53.4268 26.8656 52.2998C27.9985 51.1312 28.5485 49.3403 28.5485 46.8246C28.5485 41.8749 22.9746 41.8749 20.2974 41.8749C16.7432 41.8749 15.7436 43.6402 14.8328 47.5987C14.3778 49.0426 14.5922 50.6315 15.4104 51.8796C16.3336 53.1365 17.9774 53.7739 20.2974 53.7739ZM16.5584 48.0511C17.4665 44.1041 18.2164 43.7721 20.2974 43.7721C24.3972 43.7721 26.7714 44.2711 26.7714 46.8246C26.7714 48.7711 26.3875 50.1541 25.6314 50.9358C24.5793 52.02 22.8227 51.9583 21.2633 51.9005C20.9256 51.8882 20.6004 51.8768 20.2974 51.8768C19.097 51.8768 17.5172 51.6747 16.8081 50.7091C16.3468 49.9111 16.2547 48.931 16.5584 48.0511Z" fill="url(#paint1_diamond)"/>
<path d="M25.9459 59.3127C25.9195 59.949 26.1729 60.5619 26.631 60.9699C27.4971 61.5808 28.6167 61.5993 29.5001 61.0173C29.953 61.3013 30.4685 61.4516 30.9938 61.4527C31.4909 61.4672 31.9772 61.2965 32.3692 60.9699C32.8273 60.5619 33.0807 59.949 33.0543 59.3127C33.0543 55.6977 32.1569 53.8641 30.3887 53.8641C30.0787 53.8594 29.7727 53.9398 29.5001 54.0974C29.2275 53.9398 28.9216 53.8594 28.6116 53.8641C26.8433 53.8641 25.9459 55.6977 25.9459 59.3127ZM28.6116 55.7612C28.6116 56.2851 29.0094 56.7098 29.5001 56.7098C29.9908 56.7098 30.3887 56.2851 30.3887 55.7612C30.7183 55.7612 31.2772 56.5097 31.2772 59.3127C31.2772 59.4939 31.2443 59.5024 31.2052 59.5224C30.9188 59.5877 30.6198 59.5312 30.3718 59.3649C30.2895 58.9206 29.9244 58.6003 29.5001 58.6003C29.0758 58.6003 28.7108 58.9206 28.6284 59.3649C28.3805 59.5313 28.0814 59.5878 27.795 59.5224C27.7559 59.5072 27.723 59.4939 27.723 59.3127C27.723 56.5097 28.2819 55.7612 28.6116 55.7612Z" fill="url(#paint2_diamond)"/>
<path d="M13.3996 73.7842H35.9421H36.4308H37.0599C40.0943 73.7842 43.2718 73.6125 44.5291 72.2788C44.8999 71.9008 45.1104 71.3777 45.112 70.8303C45.112 70.301 45.1004 69.6996 40.7705 66.9952C41.1315 66.5174 41.3484 65.934 41.3925 65.3219C41.7657 59.4284 43.2398 58.6202 46.4732 56.8473C48.5027 55.7252 49.4054 53.6753 49.0864 50.9158C49.0864 50.8959 49.0864 50.876 49.0802 50.8551C49.0332 50.4803 48.9683 50.1083 48.8856 49.7406C49.3139 49.3943 49.7386 49.0348 50.1491 48.643C54.0801 44.917 56.1566 39.2502 56.1566 32.2573C56.1566 21.6635 46.8384 17.818 40.5741 17.818H40.2667C38.0221 17.6432 35.7686 17.9838 33.6577 18.8168C33.3911 18.9117 33.1316 19.0066 32.8766 19.1071C31.7735 18.9348 30.6593 18.8558 29.5446 18.8709C18.5621 18.8709 7.48186 25.2416 7.48186 39.4741C7.48186 42.8425 8.77292 47.6793 9.91382 50.914V50.9234C9.88894 51.1397 9.8845 51.3437 9.87473 51.5514C5.64761 53.2202 2.84175 57.5235 2.84363 62.3349C2.80419 68.6053 7.5261 73.7268 13.3996 73.7842ZM34.2281 20.6135C36.7116 19.7151 37.4429 19.7151 40.2658 19.7151H40.5741C45.3492 19.7151 54.3795 22.337 54.3795 32.2573C54.3795 38.6924 52.5136 43.8698 48.9692 47.2306C45.327 50.7053 40.9997 51.9669 38.981 51.9669H38.8574C38.542 51.9669 38.2026 51.9792 37.8498 51.9915C36.2167 52.0494 34.3738 52.1168 33.2667 50.9737C32.467 50.1503 32.0654 48.6971 32.0654 46.6548C32.0654 43.6791 35.4205 43.4297 38.8574 43.4297H39.0449H39.1027C40.057 43.424 43.7303 43.3206 45.2906 42.2098C47.4879 40.6446 48.5569 37.3208 48.5569 32.0486C48.5569 26.8067 43.6094 25.4085 40.6861 25.4085H34.2379C30.601 25.4085 30.601 23.3918 30.5948 22.4575C30.6784 22.2289 31.2586 21.6891 34.2281 20.6135ZM29.5446 20.7681H29.6556C29.2563 21.0934 28.9802 21.5615 28.8781 22.0866C27.4865 22.3808 26.2045 23.0991 25.1871 24.1545C24.9465 24.417 24.7334 24.7067 24.5518 25.0187C23.0686 25.3217 21.6946 26.062 20.5853 27.1558C20.2502 27.5313 20.2597 28.1244 20.6066 28.4875C20.9535 28.8506 21.5092 28.8489 21.8542 28.4838C22.4344 27.9214 23.1075 27.4791 23.8392 27.1795C23.723 28.1634 23.7968 29.1622 24.056 30.1144C24.148 30.4454 24.4011 30.6969 24.7169 30.771C25.0327 30.8452 25.3614 30.7303 25.5749 30.4711C25.7885 30.212 25.8534 29.8494 25.7442 29.5244C25.738 29.4998 25.0094 27.0534 26.4551 25.4835C27.1658 24.7508 28.0492 24.2375 29.0114 23.998C29.6885 26.6806 32.1329 27.3038 34.2379 27.3038H40.6861C40.9349 27.3038 46.7798 27.3579 46.7798 32.0467C46.7798 36.5724 45.9472 39.4598 44.3043 40.6294C43.2913 41.3513 40.1627 41.5372 39.1134 41.5353C39.0911 41.5353 39.0689 41.5353 39.0449 41.5353H38.8574C35.863 41.5353 30.2883 41.5353 30.2883 46.6577C30.2883 49.2701 30.8578 51.1293 32.0316 52.3406C33.3344 53.5081 35.0179 54.0758 36.7125 53.9191C37.1248 53.9191 37.5264 53.9048 37.9103 53.8906C38.2417 53.8783 38.5598 53.8669 38.8574 53.8669H39.0876H39.1445C42.0471 53.6246 44.8475 52.6139 47.2925 50.9263C47.2987 50.969 47.3085 51.0154 47.3138 51.0581C47.3138 51.0809 47.3138 51.1046 47.3191 51.1274C47.5564 53.1023 47.0126 54.4265 45.6593 55.174C41.9807 57.1917 40.0419 58.5538 39.6172 65.2005C39.6029 65.7364 39.2044 66.17 38.7028 66.1956H37.4971V64.2984C37.4971 63.7745 37.0993 63.3498 36.6085 63.3498C36.1178 63.3498 35.72 63.7745 35.72 64.2984V66.1956H33.9429V64.2984C33.9429 63.7745 33.5451 63.3498 33.0543 63.3498C32.5636 63.3498 32.1658 63.7745 32.1658 64.2984V66.1956H30.3887V64.2984C30.3887 63.7745 29.9909 63.3498 29.5001 63.3498C29.0094 63.3498 28.6116 63.7745 28.6116 64.2984V66.1956H26.8345V64.2984C26.8345 63.7745 26.4367 63.3498 25.9459 63.3498C25.4552 63.3498 25.0574 63.7745 25.0574 64.2984V66.1956H23.2803V64.2984C23.2803 63.7745 22.8825 63.3498 22.3917 63.3498C21.901 63.3498 21.5032 63.7745 21.5032 64.2984V66.1956H20.2974C19.7933 66.1727 19.3922 65.7362 19.3804 65.1977C18.9584 58.5443 17.0196 57.1822 13.3436 55.1664C11.9877 54.4171 11.4439 53.0928 11.6811 51.1179C11.6811 51.0942 11.6856 51.0705 11.6874 51.0468C11.8793 49.7468 12.2594 48.4865 12.814 47.3112C13.8128 45.1153 13.8234 40.9975 13.8234 40.823C13.8234 40.2991 13.4256 39.8744 12.9349 39.8744C12.4442 39.8744 12.0463 40.2991 12.0463 40.823C12.0463 41.8901 11.8962 44.9882 11.2173 46.4803C11.0645 46.8113 10.901 47.2126 10.7402 47.6404C9.90444 45.0019 9.4062 42.2549 9.25896 39.4741C9.25896 25.6665 20.1872 20.7681 29.5446 20.7681ZM16.6792 60.5041C17.054 61.409 17.3019 62.3679 17.415 63.3498H13.0264C12.2903 63.3498 11.6936 62.7128 11.6936 61.927C11.6936 61.1411 12.2903 60.5041 13.0264 60.5041H16.6792ZM10.0284 53.5216C10.3522 54.9757 11.2699 56.1981 12.5288 56.8521C13.5012 57.3341 14.4243 57.9222 15.2833 58.6069H13.0264C11.3088 58.6069 9.91649 60.0934 9.91649 61.927C9.91649 63.7606 11.3088 65.247 13.0264 65.247H17.6016C17.6016 65.2764 17.6016 65.302 17.6078 65.3314C17.6948 66.8587 18.8645 68.0595 20.2974 68.0927H38.7028C38.7855 68.0927 38.8646 68.0747 38.9454 68.0671C40.44 68.9221 41.8717 69.8969 43.2282 70.9831C42.202 71.926 37.8765 71.8937 36.4415 71.889L13.3996 71.8871C8.50694 71.8313 4.57979 67.5582 4.62073 62.3349C4.6175 58.5093 6.74207 55.0468 10.0284 53.5216Z" fill="url(#paint3_diamond)"/>
<path d="M35.72 23.5095C36.2107 23.5095 36.6085 23.0848 36.6085 22.5609C36.6085 22.037 36.2107 21.6123 35.72 21.6123C35.2292 21.6123 34.8314 22.037 34.8314 22.5609C34.8314 23.0848 35.2292 23.5095 35.72 23.5095Z" fill="url(#paint4_diamond)"/>
<defs>
<radialGradient id="paint0_diamond" cx="0" cy="0" r="1" gradientUnits="userSpaceOnUse" gradientTransform="translate(29.5 45.5) rotate(90) scale(45.5 29.5)">
<stop stop-color="#C100FF"/>
<stop offset="1" stop-color="#320D3E"/>
</radialGradient>
<radialGradient id="paint1_diamond" cx="0" cy="0" r="1" gradientUnits="userSpaceOnUse" gradientTransform="translate(21.5734 47.8619) rotate(90) scale(5.98692 6.97515)">
<stop stop-color="#C100FF"/>
<stop offset="1" stop-color="#320D3E"/>
</radialGradient>
<radialGradient id="paint2_diamond" cx="0" cy="0" r="1" gradientUnits="userSpaceOnUse" gradientTransform="translate(29.5001 57.6587) rotate(90) scale(3.79484 3.55608)">
<stop stop-color="#C100FF"/>
<stop offset="1" stop-color="#320D3E"/>
</radialGradient>
<radialGradient id="paint3_diamond" cx="0" cy="0" r="1" gradientUnits="userSpaceOnUse" gradientTransform="translate(29.5 45.7788) rotate(90) scale(28.0054 26.6566)">
<stop stop-color="#C100FF"/>
<stop offset="1" stop-color="#320D3E"/>
</radialGradient>
<radialGradient id="paint4_diamond" cx="0" cy="0" r="1" gradientUnits="userSpaceOnUse" gradientTransform="translate(35.72 22.5609) rotate(90) scale(0.948581 0.888552)">
<stop stop-color="#C100FF"/>
<stop offset="1" stop-color="#320D3E"/>
</radialGradient>
</defs>
</svg>
