<svg width="59" height="91" viewBox="0 0 59 91" fill="none" xmlns="http://www.w3.org/2000/svg">
<rect width="59" height="91" fill="url(#paint0_diamond)"/>
<path d="M27.9529 57.3019V74H29.6803L30.9471 65.2479L29.6803 57.3019H27.9529Z" fill="#DFC49C"/>
<path d="M29.6804 57.3019H31.4078V74H29.6804V57.3019Z" fill="#FFD79D"/>
<path d="M13.775 55.5745L5.0033 63.5163C5.0033 63.5163 12.6067 68.6678 19.3462 66.7847C27.4067 64.5325 29.6804 58.1072 29.6804 58.1072L23.6921 55.1137L13.775 55.5745Z" fill="#549414"/>
<path d="M45.5857 55.5745H34.9777L29.6804 58.1073C29.6804 58.1073 31.9541 64.5326 40.0145 66.7848C46.754 68.6679 54.3574 63.5164 54.3574 63.5164L45.5857 55.5745Z" fill="#549414"/>
<path d="M20.5504 26.9373C14.4281 23.8037 8.14773 21.8415 7.88333 21.7595L6.17851 21.2307L5.70589 22.952C5.65234 23.147 4.38547 27.7926 3.60043 33.4252C2.51643 41.202 2.90153 46.8597 4.74489 50.2422C4.81582 50.3784 4.8901 50.5154 4.9653 50.6494C7.72429 55.5647 12.848 58.3335 18.1201 58.3335C20.6129 58.3335 23.14 57.7138 25.4641 56.4093L20.5504 26.9373Z" fill="#60A917"/>
<path d="M55.7603 33.4252C54.9752 27.7926 53.7083 23.1471 53.6548 22.952L53.1822 21.2307L51.4774 21.7595C51.213 21.8415 44.9326 23.8037 38.8103 26.9373L33.8964 56.4092C36.2211 57.714 38.7473 58.3334 41.2406 58.3334C46.5121 58.3334 51.6365 55.5642 54.3952 50.6496C54.4705 50.5153 54.5447 50.3783 54.6157 50.242C56.4592 46.8597 56.8443 41.2019 55.7603 33.4252Z" fill="#60A917"/>
<path d="M28.4389 16.2828C28.2869 16.4398 24.6724 20.1881 21.0012 25.1237C15.9432 31.924 13.3747 37.4716 13.3669 41.613C13.1619 50.6933 20.6179 58.2147 29.6802 58.1074L33.9411 41.1797L29.6804 15L28.4389 16.2828Z" fill="#FFD79D"/>
<path d="M45.9936 41.6126C45.9858 37.4712 43.4174 31.9238 38.3594 25.1236C34.6882 20.1879 31.0737 16.4398 30.9217 16.2826L29.6804 15V58.1073C38.7603 58.2071 46.1954 50.6899 45.9936 41.6126Z" fill="#DFC49C"/>
<defs>
<radialGradient id="paint0_diamond" cx="0" cy="0" r="1" gradientUnits="userSpaceOnUse" gradientTransform="translate(29.5 45.5) rotate(90) scale(45.5 29.5)">
<stop stop-color="#C100FF"/>
<stop offset="1" stop-color="#320D3E"/>
</radialGradient>
</defs>
</svg>
