<svg width="51" height="28" viewBox="0 0 51 28" fill="none" xmlns="http://www.w3.org/2000/svg">
<path d="M48.5654 17.0263H22.3918C19.9185 17.0263 17.9135 15.2162 17.9135 12.9833V12.5341H48.5654V17.0263Z" fill="#6D1D40"/>
<path d="M47.401 0H24.9514C20.8756 0 17.1893 2.14071 15.4687 5.41578H10.4415C9.6171 5.41578 8.94873 6.01917 8.94873 6.76344V12.1792C8.94873 12.9235 9.6171 13.5269 10.4415 13.5269H15.4707C17.1913 16.8021 20.8757 18.9435 24.9514 18.9435H47.401C49.3601 18.9435 50.9538 17.5047 50.9538 15.7361V3.20742C50.9538 1.43885 49.36 0 47.401 0V0ZM47.9682 15.7361C47.9682 16.0185 47.7137 16.2482 47.401 16.2482H24.9514C22.5463 16.2482 20.331 15.2067 18.9378 13.5269H47.9682V15.7361Z" fill="#A44E3F"/>
<path d="M8.94873 9.4682V12.1792C8.94873 12.9235 9.6171 13.5269 10.4415 13.5269H15.4707C17.1913 16.8021 20.8757 18.9436 24.9514 18.9436H47.401C49.3601 18.9436 50.9538 17.5047 50.9538 15.7361V9.4682H8.94873ZM47.9682 15.7361C47.9682 16.0185 47.7137 16.2483 47.401 16.2483H24.9514C22.5463 16.2483 20.331 15.2067 18.9378 13.5269H47.9682V15.7361Z" fill="#87373B"/>
<path d="M10.4415 13.5269H4.4674C3.64298 13.5269 2.97461 12.9235 2.97461 12.1792V6.76343C2.97461 6.01916 3.64298 5.41577 4.4674 5.41577H10.4415V13.5269Z" fill="#CA5742"/>
<path d="M4.46752 27.0446C2.00412 27.0446 0 25.2353 0 23.0114C0 22.4591 0.174756 21.4503 1.68576 19.076C2.44957 17.8758 3.20303 16.8775 3.23467 16.8355C3.51273 16.4678 3.9742 16.2479 4.46742 16.2479C4.96063 16.2479 5.4221 16.4678 5.70016 16.8355C5.73191 16.8775 6.48537 17.8758 7.24908 19.076C8.76008 21.4503 8.93483 22.4591 8.93483 23.0114C8.93493 25.2353 6.93092 27.0446 4.46752 27.0446Z" fill="#FFCF64"/>
<path d="M2.97461 9.4682V12.1792C2.97461 12.9235 3.64298 13.5269 4.4674 13.5269H10.4415V9.4682H2.97461Z" fill="#A44E3F"/>
<path d="M8.93495 23.0114C8.93495 22.4591 8.76019 21.4503 7.24919 19.076C6.48538 17.8758 5.73192 16.8775 5.70027 16.8355C5.42222 16.4678 4.96075 16.2479 4.46753 16.2479V27.0446C6.93093 27.0446 8.93495 25.2353 8.93495 23.0114Z" fill="#FEA72B"/>
</svg>
