<svg width="19" height="22" viewBox="0 0 19 22" fill="none" xmlns="http://www.w3.org/2000/svg">
<path d="M18.457 0.416326C18.1876 0.151072 17.8073 0 17.4086 0H1.42213C1.02355 0 0.643167 0.151072 0.373809 0.416326C0.10445 0.681665 -0.0292329 1.03688 0.00537313 1.39534L0.374757 5.22162L3.10683 10.6014H15.7239L18.456 5.22162L18.8254 1.39534C18.8601 1.03688 18.7264 0.681665 18.457 0.416326V0.416326Z" fill="#EDF9FF"/>
<path d="M17.4085 0H9.41528V10.6015H15.7238L18.4559 5.22171L18.8253 1.39543C18.8599 1.03688 18.7263 0.681665 18.4568 0.416411C18.1874 0.151158 17.8072 0 17.4085 0V0Z" fill="#C0E1F0"/>
<path d="M18.456 5.22174H0.374756L1.50092 20.0168C1.56491 20.6801 2.26338 22 3.00092 22H15.5009C16.2385 22 17.4369 20.6802 17.5009 20.0168L18.456 5.22174Z" fill="#FF6699"/>
<path d="M9.50079 22H15.5009C16.2385 22 17.4369 20.6634 17.5009 20L18.5414 5.20496H9.50079V22Z" fill="#E62E6B"/>
</svg>
